<?xml version="1.0" encoding="UTF-8" standalone="no"?><!DOCTYPE svg PUBLIC "-//W3C//DTD SVG 1.1//EN" "http://www.w3.org/Graphics/SVG/1.1/DTD/svg11.dtd"><svg width="100%" height="100%" viewBox="0 0 192 192" version="1.1" xmlns="http://www.w3.org/2000/svg" xmlns:xlink="http://www.w3.org/1999/xlink" xml:space="preserve" xmlns:serif="http://www.serif.com/" style="fill-rule:evenodd;clip-rule:evenodd;stroke-linejoin:round;stroke-miterlimit:2;"><path d="M159.484,170.819l-19.533,0l-0,-10.394l-2.868,0l0,10.394l-19.712,0l-0,-19.085l10.035,-0l0,-2.868l-10.035,0l-0,-20.161l19.712,0l0,11.29l2.868,0l-0,-11.29l19.533,0l0,20.251l-10.125,-0l0,2.867l10.125,0l0,18.996Z" style="fill:#ff00b4;"/><path d="M114.593,170.819l-19.265,0l-0.09,-42.024l19.176,-0.09l0.179,42.114Z" style="fill:#ff00b4;"/><path d="M92.461,128.257l-18.907,0l0,42.562l-19.354,0l-0.09,-42.562l-21.774,-0.089l0,-17.383l60.035,-0l0.09,17.472Z" style="fill:#ff00b4;"/><path d="M128.795,39.102l42.114,-0l-0,8.422l-31.63,0l-0,24.373l31.63,-0l-0,9.318l-42.114,0l0,-42.113Z" style="fill:#ff00b4;"/><path d="M126.017,39.102l0,42.113l-19.533,0l-0,-11.111l-2.868,0l0,11.111l-19.713,0l0,-42.113l42.114,-0Zm-19.533,21.146l-0,-12.724l-2.868,0l0,12.724l2.868,0Z" style="fill:#ff00b4;"/><path d="M81.126,81.215l-28.494,0l-0,-19.354l-2.868,-0l0,19.354l-28.673,0l0,-60.034l28.673,-0l0,20.25l2.868,0l-0,-20.25l28.494,-0l-0,60.034Z" style="fill:#ff00b4;"/><g><path d="M83.903,83.993l-65.59,0l0,-65.59l65.59,0l0,65.59Zm-2.777,-2.778l-0,-60.034l-28.494,-0l-0,20.25l-2.868,0l0,-20.25l-28.673,-0l0,60.034l28.673,0l0,-19.354l2.868,-0l-0,19.354l28.494,0Z" style="fill:#ff00b4;fill-rule:nonzero;stroke:#000;stroke-width:1.67px;"/><path d="M128.795,83.993l-47.669,0l-0,-47.669l47.669,-0l0,47.669Zm-2.778,-2.778l0,-42.113l-42.114,-0l0,42.113l19.713,0l0,-11.111l2.868,0l-0,11.111l19.533,0Zm-19.533,-20.967l-2.868,0l0,-12.724l2.868,0l-0,12.724Z" style="fill:#ff00b4;fill-rule:nonzero;stroke:#000;stroke-width:1.67px;"/><path d="M173.687,83.993l-47.67,0l0,-47.669l47.67,-0l-0.09,13.978l-31.541,0.09l0,18.637l31.541,0.09l0.09,14.874Zm-2.778,-2.778l-0,-9.318l-31.63,-0l-0,-24.373l31.63,0l-0,-8.422l-42.114,-0l0,42.113l42.114,0Z" style="fill:#ff00b4;fill-rule:nonzero;stroke:#000;stroke-width:1.67px;"/><path d="M95.238,131.035l-18.906,0l-0,42.562l-25,-0l0.09,-42.472l-21.774,-0l-0.089,-23.118l65.59,-0l0.089,23.028Zm-2.777,-2.778l-0.09,-17.472l-60.035,-0l0,17.383l21.774,0.089l0.09,42.562l19.354,0l0,-42.562l18.907,0Z" style="fill:#ff00b4;fill-rule:nonzero;stroke:#000;stroke-width:1.67px;"/><path d="M117.281,173.597l-24.731,-0l0,-47.669l24.731,-0.09l-0,47.759Zm-2.688,-2.778l-0.179,-42.114l-19.176,0.09l0.09,42.024l19.265,0Z" style="fill:#ff00b4;fill-rule:nonzero;stroke:#000;stroke-width:1.67px;"/><path d="M162.262,173.597l-47.669,-0l-0,-47.669l47.669,-0l0,47.669Zm-2.778,-2.778l0,-18.996l-10.125,0l0,-2.867l10.125,-0l0,-20.251l-19.533,0l-0,11.29l-2.868,0l0,-11.29l-19.712,0l-0,20.161l10.035,0l0,2.868l-10.035,-0l-0,19.085l19.712,0l0,-10.394l2.868,0l-0,10.394l19.533,0Z" style="fill:#ff00b4;fill-rule:nonzero;stroke:#000;stroke-width:1.67px;"/></g><path d="M157.703,97.679l-0,8.737c-0,2.411 -1.958,4.369 -4.369,4.369l-30.667,-0c-2.411,-0 -4.369,-1.958 -4.369,-4.369l0,-8.737c0,-2.411 1.958,-4.368 4.369,-4.368l30.667,0c2.411,0 4.369,1.957 4.369,4.368Z" style="fill:#ff00b4;stroke:#000;stroke-width:1.67px;stroke-linecap:round;stroke-miterlimit:1.5;"/><rect x="107.648" y="96.096" width="13.89" height="11.903" style="fill:#ff00b4;stroke:#000;stroke-width:1.67px;stroke-linecap:round;stroke-miterlimit:1.5;"/><path d="M114.593,98.532l-0,1.311c-0,0.362 -0.294,0.656 -0.656,0.656l-3.559,-0c-0.362,-0 -0.655,-0.294 -0.655,-0.656l-0,-1.311c-0,-0.362 0.293,-0.656 0.655,-0.656l3.559,0c0.362,0 0.656,0.294 0.656,0.656Z"/><path d="M114.593,104.253l-0,1.311c-0,0.362 -0.294,0.655 -0.656,0.655l-3.559,0c-0.362,0 -0.655,-0.293 -0.655,-0.655l-0,-1.311c-0,-0.362 0.293,-0.656 0.655,-0.656l3.559,-0c0.362,-0 0.656,0.294 0.656,0.656Z"/><text x="132.161px" y="107.499px" style="font-family:'Menlo-Regular', 'Menlo', monospace;font-size:19.398px;">☠</text></svg>